/vscmnt/brussel_pixiu_data/_data_brussel/112/vsc11236/PredSimResults/SUBJ06mtu3D/weighted-LRposFixed/trackIG/worker_03.mot
version=1
nRows=4
nColumns=50
inDegrees=yes
endheader
                time	         pelvis_tilt	         pelvis_list	     pelvis_rotation	           pelvis_tx	           pelvis_ty	           pelvis_tz	       hip_flexion_r	     hip_adduction_r	      hip_rotation_r	        knee_angle_r	       ankle_angle_r	         mtp_angle_r	       hip_flexion_l	     hip_adduction_l	      hip_rotation_l	        knee_angle_l	       ankle_angle_l	         mtp_angle_l	    lumbar_extension	      lumbar_bending	     lumbar_rotation	 ercspn_r/activation	 intobl_r/activation	 extobl_r/activation	    abd_r/activation	    add_r/activation	hamstrings_r/activation	bifemsh_r/activation	glut_max_r/activation	iliopsoas_r/activation	rect_fem_r/activation	  vasti_r/activation	gastroc_r/activation	 soleus_r/activation	tib_ant_r/activation	 ercspn_l/activation	 intobl_l/activation	 extobl_l/activation	    abd_l/activation	    add_l/activation	hamstrings_l/activation	bifemsh_l/activation	glut_max_l/activation	iliopsoas_l/activation	rect_fem_l/activation	  vasti_l/activation	gastroc_l/activation	 soleus_l/activation	tib_ant_l/activation	
          1.93384003	         -8.13910380	          4.78262949	         -9.71316461	          2.16590084	          0.92595765	          0.01691815	         -9.90385271	         -4.91639735	          7.81767477	         -6.51763077	         10.16909490	         29.57155540	         31.57579929	          0.53995677	         -6.36452657	         -1.34505332	          6.62819702	          0.21265786	         -1.43245491	         -2.67588505	          3.11702674	          0.05784607	          0.00999999	          0.00999999	          0.05896927	          0.01125477	          0.01952015	          0.14471821	          0.05764630	          0.44043204	          0.01000001	          0.01000000	          0.36549596	          0.33566129	          0.01793041	          0.10153516	          0.17245948	          0.02936196	          0.01071412	          0.10151177	          0.08289209	          0.22502659	          0.00999999	          0.09860920	          0.01000000	          0.00999999	          0.02458229	          0.00999999	          0.28778365	
          1.94673230	         -8.24650321	          4.71139518	         -9.76910838	          2.18332245	          0.92368227	          0.01657125	        -10.21962650	         -4.90145171	          7.41850703	         -7.72136967	          9.52658309	         31.51901605	         31.74071806	          0.64311496	         -6.13169505	         -3.12219766	          6.18486959	          0.21122807	         -1.13660976	         -3.01805368	          3.26369446	          0.09518428	          0.00999999	          0.00999999	          0.04853953	          0.04358323	          0.01606768	          0.11912227	          0.04745055	          0.45380729	          0.01000002	          0.00999999	          0.33741841	          0.31694245	          0.01475910	          0.08357690	          0.14222727	          0.02416879	          0.00999999	          0.14463840	          0.07645621	          0.18522672	          0.06171338	          0.08116845	          0.01000000	          0.00999999	          0.02839487	          0.01821622	          0.29793096	
          1.95962457	         -8.33249652	          4.62915226	         -9.76433815	          2.20118439	          0.92166096	          0.01614152	        -10.41969997	         -4.85888369	          6.98704734	         -9.21871184	          8.72661607	         33.52286951	         31.69489590	          0.73503856	         -5.88314866	         -4.77873618	          5.70488664	          0.19580946	         -0.81987348	         -3.36149193	          3.38432078	          0.10126514	          0.00999999	          0.00999999	          0.03995447	          0.03587489	          0.02153809	          0.09805343	          0.03905809	          0.44475528	          0.01000003	          0.01793041	          0.29796743	          0.29329087	          0.01214870	          0.07559240	          0.11707190	          0.01989412	          0.05851585	          0.11905659	          0.07579138	          0.15246616	          0.10249968	          0.06681239	          0.00999999	          0.00999999	          0.02337274	          0.01499437	          0.35347912	
          1.97251683	         -8.39972384	          4.53308603	         -9.69989885	          2.21920762	          0.92013332	          0.01560228	        -10.40861776	         -4.77877297	          6.53310630	        -11.12715155	          7.71277608	         35.56915322	         31.46726133	          0.84351200	         -5.67817599	         -6.12535226	          5.06579499	          0.17104462	         -0.51139755	         -3.69968257	          3.47318265	          0.13191392	          0.00999999	          0.00999999	          0.03288782	          0.04813481	          0.02213189	          0.08071097	          0.03214999	          0.43323067	          0.01214867	          0.01475911	          0.24526670	          0.25312249	          0.00999999	          0.08524554	          0.09636570	          0.01637550	          0.11441171	          0.14034360	          0.06966910	          0.12549987	          0.14888906	          0.05499546	          0.00999999	          0.00999999	          0.01923887	          0.01234235	          0.38884065	
